<svg id="Capa_1" enable-background="new 0 0 497.004 497.004" height="512" viewBox="0 0 497.004 497.004" width="512" xmlns="http://www.w3.org/2000/svg"><path d="m495.533 190.175c-4.016-12.36-15.534-20.729-28.531-20.729l-145.121-.002-44.848-138.019c-4.016-12.36-15.534-20.729-28.531-20.729-3.211 0-6.331.515-9.271 1.471l9.271 236.335 141.229 237.142c4.043-.851 7.951-2.527 11.445-5.065 10.514-7.639 14.914-21.18 10.898-33.541l-44.843-138.019 117.404-85.303c10.516-7.64 14.915-21.181 10.898-33.541z" fill="#ffb820"/><path d="m467.001 199.446-166.917-.002-60.853-187.277c-8.959 2.913-16.237 9.952-19.261 19.259l-44.847 138.018-145.122.002c-12.997 0-24.515 8.369-28.531 20.729s.383 25.901 10.898 33.541l117.405 85.303-44.843 138.019c-4.017 12.36.383 25.901 10.898 33.54 10.514 7.639 24.752 7.639 35.267 0l117.407-85.298 117.407 85.299c7.021 5.101 15.698 6.776 23.822 5.065l-57.766-188.084z" fill="#ffd06a"/></svg>